<svg xmlns="http://www.w3.org/2000/svg" viewBox="0 0 64 64">
  <rect width="64" height="64" rx="16" fill="#14343B"/>
  <g fill="#E9A824" transform="translate(32 32) scale(.86) translate(-32 -32)">
    <ellipse cx="32" cy="15.5" rx="6.5" ry="14"/>
    <ellipse cx="32" cy="15.5" rx="6.5" ry="14" transform="rotate(45 32 32)"/>
    <ellipse cx="32" cy="15.5" rx="6.5" ry="14" transform="rotate(90 32 32)"/>
    <ellipse cx="32" cy="15.5" rx="6.5" ry="14" transform="rotate(135 32 32)"/>
    <ellipse cx="32" cy="15.5" rx="6.5" ry="14" transform="rotate(180 32 32)"/>
    <ellipse cx="32" cy="15.5" rx="6.5" ry="14" transform="rotate(225 32 32)"/>
    <ellipse cx="32" cy="15.5" rx="6.5" ry="14" transform="rotate(270 32 32)"/>
    <ellipse cx="32" cy="15.5" rx="6.5" ry="14" transform="rotate(315 32 32)"/>
  </g>
  <circle cx="32" cy="32" r="7.7" fill="#F7F2E8"/>
</svg>
